<?xml version="1.0" encoding="UTF-8" standalone="no"?>
<!-- Created with Inkscape (http://www.inkscape.org/) -->

<svg
   version="1.1"
   id="svg1"
   width="768"
   height="329.14667"
   viewBox="0 0 768 329.14667"
   sodipodi:docname="UCSB_Tab_Navy_PMS.eps"
   xmlns:inkscape="http://www.inkscape.org/namespaces/inkscape"
   xmlns:sodipodi="http://sodipodi.sourceforge.net/DTD/sodipodi-0.dtd"
   xmlns="http://www.w3.org/2000/svg"
   xmlns:svg="http://www.w3.org/2000/svg">
  <defs
     id="defs1" />
  <sodipodi:namedview
     id="namedview1"
     pagecolor="#ffffff"
     bordercolor="#000000"
     borderopacity="0.25"
     inkscape:showpageshadow="2"
     inkscape:pageopacity="0.0"
     inkscape:pagecheckerboard="0"
     inkscape:deskcolor="#d1d1d1">
    <inkscape:page
       x="0"
       y="0"
       inkscape:label="1"
       id="page1"
       width="768"
       height="329.14667"
       margin="0"
       bleed="0" />
  </sodipodi:namedview>
  <g
     id="g1"
     inkscape:groupmode="layer"
     inkscape:label="1">
    <g
       id="group-R5">
      <path
         id="path2"
         d="M 5760,0 H 0 V 2468.57 H 5760 V 0"
         style="fill:#1b385e;fill-opacity:1;fill-rule:nonzero;stroke:none"
         transform="matrix(0.13333333,0,0,-0.13333333,0,329.14667)" />
      <path
         id="path3"
         d="m 1194.42,660.359 c -272.58,0 -426.385,149.231 -426.385,429.421 v 525.37 H 658.398 v 149.24 h 432.472 v -149.24 h -120.3 v -510.13 c 0,-199.489 63.96,-281.719 225.38,-281.719 156.84,0 236.02,70.051 236.02,295.409 v 496.44 h -120.3 v 149.24 h 432.48 v -149.24 h -109.64 v -513.19 c 0,-284.749 -152.28,-441.601 -440.09,-441.601"
         style="fill:#ffffff;fill-opacity:1;fill-rule:nonzero;stroke:none"
         transform="matrix(0.13333333,0,0,-0.13333333,0,329.14667)" />
      <path
         id="path4"
         d="m 2449.85,660.359 c -344.28,0 -537.95,219.782 -537.95,557.931 v 12.28 c 0,328.92 215.18,561.01 517.97,561.01 153.7,0 264.36,-53.8 315.09,-149.09 v 121.9 h 164.44 v -357.05 h -182.89 c -36.89,152.15 -129.1,221.32 -278.19,221.32 -193.67,0 -321.24,-149.09 -321.24,-399.61 v -9.22 c 0,-247.459 118.35,-395.01 321.24,-395.01 153.69,0 259.74,78.379 282.8,235.15 h 198.26 C 2897.11,794.078 2711.14,660.359 2449.85,660.359"
         style="fill:#ffffff;fill-opacity:1;fill-rule:nonzero;stroke:none"
         transform="matrix(0.13333333,0,0,-0.13333333,0,329.14667)" />
      <path
         id="path5"
         d="m 4488.13,880.512 h 214.84 c 18.41,0 37.06,2.058 56,6.136 18.92,4.09 36.06,11.262 51.41,21.493 15.34,10.211 27.86,23.527 37.59,39.898 9.72,16.352 14.58,36.289 14.58,59.851 0,25.54 -6.4,46.28 -19.18,62.14 -12.8,15.85 -28.92,27.86 -48.34,36.07 -19.44,8.15 -40.42,13.8 -62.91,16.87 -22.51,3.06 -43.5,4.61 -62.91,4.61 h -181.08 z m 0,449.608 h 173.4 c 18.41,0 36.57,2.05 54.48,6.14 17.88,4.09 33.99,10.74 48.34,19.95 14.31,9.21 25.82,21.48 34.52,36.82 8.68,15.35 13.04,33.76 13.04,55.26 0,22.49 -4.86,41.15 -14.58,56 -9.73,14.82 -22.24,26.32 -37.58,34.51 -15.36,8.18 -32.76,14.06 -52.18,17.66 -19.44,3.58 -38.36,5.38 -56.78,5.38 h -162.66 z m -239.37,434.27 h 405.11 c 47.03,0 94.36,-3.34 141.93,-9.98 47.57,-6.66 90.26,-19.94 128.13,-39.89 37.84,-19.96 68.52,-47.83 92.08,-83.64 23.51,-35.82 35.28,-83.39 35.28,-142.7 0,-61.39 -17.14,-112.29 -51.4,-152.69 -34.28,-40.42 -79.55,-69.31 -135.81,-86.69 v -3.08 c 35.8,-5.12 68.28,-15.1 97.44,-29.91 29.16,-14.85 54.22,-33.76 75.2,-56.78 20.95,-23.02 37.06,-49.87 48.33,-80.56 11.25,-30.69 16.88,-63.45 16.88,-98.208 0,-57.293 -12.27,-105.114 -36.82,-143.473 -24.55,-38.371 -56.28,-69.309 -95.15,-92.84 -38.89,-23.551 -82.62,-40.418 -131.2,-50.64 -48.59,-10.239 -96.92,-15.34 -145,-15.34 h -445 V 1764.39"
         style="fill:#ffffff;fill-opacity:1;fill-rule:nonzero;stroke:none"
         transform="matrix(0.13333333,0,0,-0.13333333,0,329.14667)" />
      <path
         id="path6"
         d="m 3978.54,1011.74 c 0,-206.822 -175,-351.271 -425.47,-351.271 -200.74,0 -344.68,67.461 -427.98,200.582 l 164.17,140.499 c 26.59,-37.921 118,-147.96 284.02,-147.96 103.81,0 168.25,45.09 168.25,117.719 0,91.701 -59.86,112.151 -211.33,154.621 -178.75,50.11 -360.52,127.32 -360.52,326.11 0,199.87 168.75,339.44 410.34,339.44 96.99,0 273.78,-22.66 370.62,-173.62 L 3798.1,1485.02 c -57.86,76.27 -138.08,113.33 -245.03,113.33 -107.4,0 -146.39,-74.41 -146.39,-124.45 0,-79.21 105.66,-113.83 233.34,-147.89 163.74,-42.87 338.52,-106.02 338.52,-314.27"
         style="fill:#ffffff;fill-opacity:1;fill-rule:nonzero;stroke:none"
         transform="matrix(0.13333333,0,0,-0.13333333,0,329.14667)" />
    </g>
  </g>
</svg>
